<svg height="512pt" viewBox="0 -61 512.00056 512" width="512pt" xmlns="http://www.w3.org/2000/svg"><path d="m256 0c-95.511719 0-184.316406 55.511719-251.636719 123.210938-5.839843 5.871093-5.8125 15.371093.0625 21.210937 5.875 5.84375 15.371094 5.816406 21.210938-.058594 42.472656-42.710937 128.875-114.363281 230.363281-114.363281s187.890625 71.652344 230.363281 114.363281c5.824219 5.855469 15.320313 5.917969 21.214844.058594 5.875-5.839844 5.898437-15.339844.058594-21.210937-67.355469-67.734376-156.152344-123.210938-251.636719-123.210938zm0 0"/><path d="m76.023438 311.382812c50.433593 43.292969 112.945312 78.617188 179.976562 78.617188 67.042969 0 129.558594-35.332031 179.976562-78.617188 44.515626-38.21875 72.03125-76.003906 73.179688-77.59375 3.792969-5.246093 3.792969-12.332031 0-17.578124-1.148438-1.589844-28.664062-39.375-73.179688-77.59375-50.429687-43.292969-112.945312-78.617188-179.976562-78.617188-67.042969 0-129.558594 35.335938-179.976562 78.621094-44.515626 38.214844-72.03125 76-73.179688 77.589844-3.792969 5.246093-3.792969 12.332031 0 17.578124 1.148438 1.589844 28.664062 39.375 73.179688 77.59375zm179.976562-221.382812c63.671875 0 122.117188 38.582031 159.933594 70.953125 29.613281 25.34375 51.609375 51 62.089844 64.042969-10.804688 13.425781-33.867188 40.253906-65.023438 66.476562-41.328125 34.792969-96.902344 68.527344-157 68.527344-63.671875 0-122.117188-38.582031-159.933594-70.949219-29.613281-25.347656-51.613281-51.003906-62.09375-64.046875 9.863282-12.25 29.925782-35.65625 57.027344-59.578125 42.007812-37.085937 100.933594-75.425781 165-75.425781zm0 0"/><path d="m256 330c57.898438 0 105-47.101562 105-105s-47.101562-105-105-105-105 47.101562-105 105 47.101562 105 105 105zm0-180c41.355469 0 75 33.644531 75 75s-33.644531 75-75 75-75-33.644531-75-75 33.644531-75 75-75zm0 0"/><path d="m256 270c24.8125 0 45-20.1875 45-45s-20.1875-45-45-45-45 20.1875-45 45 20.1875 45 45 45zm0-60c8.269531 0 15 6.730469 15 15s-6.730469 15-15 15-15-6.730469-15-15 6.730469-15 15-15zm0 0"/></svg>